ply
format ascii 1.0
comment Generated by PyMesh
element vertex 174
property float x
property float y
property float z
property float charge
property float hbond
property float hphob
property float nx
property float ny
property float nz
property float si
element face 269
property list uchar int vertex_indices
end_header
-15.487 15.633 -33.371 0.490102 0 1.9 -0.807328 -0.580167 -0.107833 0.999964
-19.395 12.6 -30.476 0.0713713 0 3.8 -0.412534 0.321166 -0.852448 -0.999916
-22.983 3.5385 -34.467 0.0213332 0 3.8 -0.524106 0.165949 0.835329 0.999941
-20.7445 4.6315 -34.3475 1.18059 0 3.6986 -0.181003 0.645214 0.742251 0.760128
-23.3235 9.4995 -34.137 0.2146 0 4.2 0.605057 -0.126504 0.786068 -0.99991
-20.999 11.543 -29.899 0.098592 0 3.8 -0.931669 0.192667 -0.308014 -0.999902
-23.3705 12.2205 -33.494 0.10835 0 4.2 0.451422 -0.0243584 0.891978 -0.848585
-21.574 7.83 -29.476 0.22539 0 4.2 -0.516018 -0.0867181 -0.852177 -0.999947
-22.684 2.515 -30.299 0.249427 -0.121715 -1.96616 -0.532898 0.82139 -0.203319 -0.382112
-24.8995 4.3405 -34.7755 0.165954 0 4.5 0.261396 -0.629303 0.731881 0.99992
-18.367 5.841 -31.4435 1.0989 0 1.9 -0.650428 0.609538 -0.453218 0.638955
-20.251 10.3045 -30.5205 0.131363 0 3.8 -0.611342 -0.348913 -0.710297 -0.691714
-16.3458 13.5112 -38.021 0.432098 0 3.8 0.0464611 -0.496027 0.867063 -0.640143
-24.6787 11.2233 -33.5415 0.0531363 0 4.2 0.14544 -0.319539 0.936345 -0.999916
-28.868 12.4645 -31.121 2.34037 0 -0.8 0.625635 -0.0821501 0.775778 0.999914
-19.4734 12.9595 -37.1024 0.393895 0 -3.9 0.670406 -0.583896 0.457843 -0.407091
-17.133 11.007 -32.6115 -0.576695 0 3.8 -0.504243 0.79245 -0.343165 0.243027
-20.4058 8.43475 -35.238 0.262252 0 1.8 -0.0788772 0.776851 0.624725 -0.473146
-24.493 5.986 -27.111 1.07247 0 -3.5 -0.0766338 0.221655 -0.972109 0.999909
-20.1995 15.2175 -33.1645 3.27968 0 -3.9 0.0941761 -0.795286 0.598875 -0.999941
-24.869 1.5075 -29.69 -0.93196 -0.0450646 -3.5 -0.456763 0.816877 -0.35225 -0.999941
-24.1075 2.724 -28.5225 -0.557007 0 1.46272 -0.544243 0.536737 -0.644758 0.136781
-21.673 6.87275 -28.8697 0.262015 0 4.2 -0.731291 -0.309352 -0.607877 -0.999957
-27.0597 14.0965 -32.3932 0.371954 0 -0.8 0.73858 -0.243672 0.628589 0.999899
-26.437 13.7305 -33.327 -0.327967 0 1.6995 0.568749 0.0606266 0.820274 0.999943
-19.857 7.657 -34.718 0.224787 0 1.8 -0.0679646 0.201126 0.977205 -0.578303
-15.333 13.416 -38.1775 0.467933 0 3.8 -0.27476 -0.332345 0.90225 0.347226
-27.5465 10.7135 -31.387 0.374774 0 -0.4 0.543195 0.73796 0.400443 -0.999958
-16.1995 16.2715 -35.633 0.0180111 0 2.61783 -0.246399 -0.874907 0.416923 0.999913
-15.6495 16.083 -34.5755 0.361843 0 1.9 -0.820634 -0.571246 0.015429 0.99991
-19.924 13.1453 -36.138 0.350291 0 -3.9 0.542236 -0.666742 0.511308 -0.523591
-22.0123 5.621 -27.937 0.0316712 0 1.85865 -0.367061 0.238571 -0.899083 0.999954
-21.462 9.207 -35.891 0.377204 0 1.8 0.631266 0.495275 0.59683 0.0996242
-22.2633 4.29525 -34.1657 0.1616 0 3.8 -0.180513 0.31445 0.931953 0.0729211
-22.879 13.4755 -34.283 0.224267 0 4.2 0.643123 0.0789261 0.761685 -0.367934
-18.4415 10.62 -38.6075 -0.534408 -0.449712 2.8 0.210609 0.450619 0.867517 0.551991
-17.376 10.3705 -34.8 -0.590968 0 1.9 -0.679074 0.683567 -0.267574 -0.478176
-20.845 11.9075 -28.6938 0.0858691 -0.0817758 3.41446 -0.957215 0.287199 0.0354507 -0.99995
-17.6145 10.5985 -33.446 -0.825835 0 2.13933 -0.709585 0.681571 -0.178744 -0.631611
-23.1227 8.32575 -34.628 0.291412 0 4.34993 0.495996 0.107487 0.861647 0.999763
-26.9175 10.8995 -32.583 0.308995 0 -0.4 0.656217 0.335957 0.675657 0.999879
-25.3248 6.55575 -27.0005 0.939806 0 -3.5 -0.00532244 0.223176 -0.974764 -0.999898
-14.83 14.659 -33.0495 0.142842 0 1.9 -0.92296 -0.384871 -0.00443197 0.999916
-26.21 4.7535 -33.4435 0.112503 0 4.5 0.312906 -0.397097 0.862788 -0.737158
-13.662 13.9395 -36.0685 -0.819245 0 2.24632 -0.960564 0.106638 -0.256798 0.999914
-14.9035 11.005 -35.4345 0.0659991 0 3.19984 -0.610643 0.630944 -0.478565 0.504927
-24.8538 12.1882 -33.1553 0.00765259 0 4.2 0.0586044 0.0318749 0.997772 -0.754625
-25.0595 5.1275 -34.0025 0.167364 0 4.5 0.356783 -0.451801 0.817668 0.154777
-18.1637 9.41825 -33.144 -0.783832 0 1.9 -0.981958 0.188873 0.00921448 -0.514828
-14.13 10.908 -36.553 0.0357011 0 1.9 -0.660142 0.634348 -0.402263 0.999894
-23.9015 4.551 -34.6613 0.11139 0 4.4554 -0.200148 -0.370176 0.907144 0.99994
-20.813 15.8055 -32.441 3.08559 0 -3.9 -0.0951628 -0.761062 0.641661 -0.999934
-20.0675 5.889 -30.0785 0.464975 0 3.04994 -0.316777 0.279471 -0.906393 0.9999
-18.926 15.148 -34.808 0.983529 0 -3.9 0.776478 -0.56733 0.274261 -0.999946
-21.0285 8.9865 -29.4215 0.204455 0 4.2 -0.316851 0.107927 -0.942315 0.999872
-25.7315 3.8645 -34.322 0.0943582 0 4.5 0.454147 -0.531181 0.71526 -0.999937
-22.7743 2.01562 -31.3006 -0.784872 -0.76045 1.9 -0.609441 0.768194 -0.196109 0.999903
-26.892 3.3195 -27.2225 2.5276 -0.0949554 -3.5 0.0790816 -0.132253 -0.988056 0.999925
-27.1005 4.7665 -27.653 1.21801 0 -3.5 0.224408 0.0071816 -0.974469 -0.999923
-25.3135 4.424 -27.244 1.81446 0 -3.5 -0.0103938 -0.00599585 -0.999928 0.347923
-19.1572 14.2085 -36.336 0.483554 0 -3.9 0.781347 -0.517082 0.349461 0.999922
-25.217 7.1715 -33.1785 -0.00700725 -0.282601 4.5 0.544556 -0.353402 0.760635 0.999919
-26.2785 6.7255 -32.3662 -0.957129 -0.334633 4.5 0.611682 -0.659152 0.43745 0.999947
-20.0028 8.88675 -36.3078 0.463267 0 1.8 0.146772 0.863516 0.482491 0.342733
-16.9805 15.637 -36.2985 0.147684 0 3.8 0.0530597 -0.790733 0.609857 -0.999912
-22.2335 3.401 -32.159 -0.796762 -0.0138679 1.9 -0.675807 0.72438 0.136234 -0.670135
-27.2577 14.7188 -31.163 0.582837 0 -0.8 0.585169 -0.681789 0.439022 -0.999932
-27.075 4.1735 -33.6768 0.10798 0 4.5 0.124524 -0.524444 0.84229 -0.999961
-14.1228 14.8632 -35.8957 -1.42247 0 1.9 -0.718753 -0.592122 -0.364397 0.999897
-18.3318 12.5583 -30.7265 0.0341293 0 3.8 -0.276581 0.414635 -0.866938 0.999916
-17.6481 15.1205 -36.9931 0.306778 0 3.8 0.0492458 -0.664102 0.746018 0.999903
-17.919 9.3415 -32.0645 -0.476815 0 3.8 -0.964595 -0.207683 -0.162557 0.376203
-17.952 10.3235 -32.4945 -0.470826 0 3.8 -0.877804 0.388666 -0.279997 -0.191936
-18.718 9.11337 -37.0344 -0.422044 0 1.83931 -0.190811 0.885256 0.424163 0.646725
-18.1801 11.755 -38.6699 -1.22268 0 3.8 0.269431 -0.175019 0.946982 0.843677
-20.3363 12.5533 -29.7383 0.0596582 0 3.8 -0.582493 0.556813 -0.592166 -0.999917
-14.5391 13.8109 -33.9712 0.0302462 0 3.90149 -0.974483 -0.0472686 -0.219427 0.155303
-20.234 11.399 -30.85 0.108796 0 3.8 -0.632959 0.10239 -0.767385 -0.942247
-19.9335 9.45487 -37.4367 0.403549 0 1.8 0.246797 0.708285 0.66138 0.840896
-14.95 14.4565 -37.8215 0.0759514 0 3.8 -0.0474556 -0.441137 0.896184 0.999907
-14.1254 14.0033 -35.1329 -0.423873 0 3.86969 -0.884572 -0.200459 -0.421128 0.369896
-14.368 12.0492 -38.117 0.226517 0 3.8 -0.555779 -0.139168 0.819599 0.999887
-23.4145 14.416 -34.319 0.2238 0 -0.144867 0.382948 0.0167274 0.923618 0.999906
-15.2498 15.1415 -34.3732 0.425184 0 1.9 -0.828433 -0.540748 -0.145916 -0.415213
-25.6025 2.94075 -27.237 0.438465 0 -3.5 -0.361073 0.225294 -0.904914 0.999882
-18.7419 8.83712 -35.7812 0.387601 0 1.84809 -0.387478 0.873893 0.29355 0.119378
-17.661 9.5045 -37.196 0.42466 0 1.84983 -0.220139 0.933597 0.282728 0.296259
-22.1391 9.874 -34.9884 0.233489 0 4.2 0.768822 0.0801116 0.634424 -0.420694
-26.0205 11.369 -33.4108 -0.338827 0 1.82627 0.174253 -0.028399 0.984291 0.999913
-22.4165 3.0585 -33.526 -0.242082 -0.328737 2.65381 -0.736987 0.571196 0.361366 0.999908
-19.5751 13.9464 -35.4559 0.510572 0 -3.9 0.602636 -0.682492 0.413563 -0.391049
-17.6472 12.9417 -38.4893 0.533894 0 3.8 0.110763 -0.40185 0.908982 0.654954
-15.0087 10.4715 -37.181 0.138342 0 2.19516 -0.365833 0.92434 0.108453 0.999854
-22.041 7.4145 -34.972 0.247191 0 3.21906 0.262837 0.184174 0.947099 0.999757
-17.2049 11.019 -38.8013 0.145071 -0.154511 3.86501 -0.0735862 0.172235 0.982304 0.691867
-25.312 13.422 -33.551 -0.222846 0 4.2 0.0718151 0.143083 0.987102 0.999892
-23.9875 7.8985 -34.111 0.257274 0 4.5 0.324855 0.0821727 0.942187 0.999881
-22.1645 11.3905 -35.9355 0.221203 0 2.57413 0.850808 -0.106611 0.514548 0.375439
-20.8701 14.5985 -33.8811 1.56573 0 -3.9 -0.0852274 -0.784168 0.614669 -0.480421
-25.009 6.0515 -33.51 0.16338 0 4.5 0.346461 -0.242105 0.906283 -0.311272
-16.3794 9.969 -36.8381 0.673641 0 1.9 -0.34198 0.939151 0.0323397 0.489157
-18.8456 6.13438 -30.5025 0.874978 0 2.48497 -0.537422 0.486178 -0.689063 0.718144
-18.8661 8.2175 -34.8336 0.25802 0 1.87052 -0.411068 0.292207 0.863504 0.0343661
-16.6175 10.9035 -34.385 -0.669593 0 1.9 -0.401504 0.864846 -0.30139 -0.596559
-19.8894 5.48263 -34.6548 0.694932 0 1.85139 -0.211307 0.532206 0.819821 0.461268
-24.9944 2.10675 -28.1378 -0.356949 -0.868225 -3.5 -0.573446 0.624198 -0.5306 0.999925
-22.6475 15.3975 -33.865 1.24813 0 -3.9 -0.164447 -0.684271 0.710444 0.999895
-22.8736 11.4154 -34.2839 0.166462 0 4.2 0.833772 -0.0166354 0.551858 -0.325886
-18.3001 8.83412 -34.0088 -0.600773 0 1.9 -0.945888 0.252387 0.203955 -0.164272
-19.8197 9.04263 -29.9701 0.188832 0 4.14546 -0.467936 -0.178799 -0.865487 0.212476
-26.2415 5.7385 -27.1215 1.30278 0 -3.5 -0.00939408 0.135637 -0.990714 0.999886
-23.563 10.6095 -33.9075 0.161629 0 4.2 0.515478 -0.170896 0.839689 -0.999884
-21.3043 3.816 -33.3073 0.223506 -0.234191 2.46781 -0.394326 0.853226 0.34134 0.272479
-21.5308 12.2625 -36.354 0.23364 0 -3.9 0.671485 -0.37685 0.638037 0.669498
-21.8162 8.356 -35.234 0.310637 0 1.97069 0.264096 0.441322 0.857606 0.999802
-14.0557 13.5592 -37.2725 -0.0541327 0 3.8 -0.885026 -0.0547882 0.462306 0.999865
-26.996 5.62 -33.0288 0.150325 0 4.5 0.353966 -0.37952 0.854794 0.999912
-24.354 13.7222 -33.7928 -0.10565 0 4.2 0.256978 0.32466 0.910252 -0.999879
-19.572 14.759 -34.033 1.26767 0 -3.9 0.343574 -0.794017 0.501492 -0.999883
-23.011 6.77731 -34.0461 0.198553 0 4.5 0.39693 0.141715 0.906843 -0.66874
-22.619 2.3855 -32.5195 -1.06984 -0.185772 1.9 -0.88493 0.41299 0.215262 0.999923
-27.648 13.03 -32.045 0.220976 0 -0.8 0.668494 -0.0956769 0.737537 0.2075
-13.7762 11.9978 -36.9757 0.108231 0 4.36629 -0.998138 -0.0444983 -0.0417095 0.999877
-14.749 13.2743 -32.5783 -0.295213 -0.0880872 4.43144 -0.95197 0.249105 -0.178044 0.999883
-17.384 11.986 -31.4414 -0.0863826 0 3.8 -0.454942 0.532065 -0.714097 0.999877
-23.1436 5.248 -34.127 0.143129 0 4.5 0.129004 -0.259705 0.957033 -0.22589
-20.2318 4.68925 -30.7835 0.69426 0 1.9 -0.61895 0.682057 -0.389487 0.999839
-21.9385 3.0245 -29.725 0.536091 0 -0.814349 -0.423001 0.834938 -0.352062 0.999875
-28.5755 11.351 -31.166 1.13038 0 -0.626934 0.656463 0.250046 0.711711 0.99987
-23.6285 1.981 -30.2005 -0.382785 0 -3.5 -0.495631 0.770447 -0.400952 0.999851
-28.674 13.7355 -30.8022 0.836444 0 -0.8 0.673921 -0.38863 0.62833 0.99992
-17.2579 6.63375 -33.5964 -0.542083 -0.00564165 -3.5 -0.910397 0.176899 0.37401 0.723773
-18.4339 10.3821 -31.62 -0.0416136 0 3.8 -0.793629 -0.020905 -0.608043 -0.102496
-17.9169 9.46187 -36.0606 0.590393 0 1.9 -0.556717 0.829419 -0.0461478 0.0675864
-17.4451 10.0284 -38.3781 0.624252 -0.0899871 1.83096 -0.0809696 0.70171 0.707847 0.810238
-19.1366 11.1097 -31.1625 0.0745953 0 3.8 -0.393009 0.0726416 -0.916661 -0.0662898
-20.8978 10.379 -29.191 0.165891 0 3.8 -0.864967 -0.172718 -0.471168 0.999908
-17.9077 7.4475 -34.3754 0.0619677 0 -1.73228 -0.814648 -0.158487 0.557881 0.658975
-19.6359 4.736 -33.7949 7.10284 0 1.9 -0.410782 0.825067 0.387972 0.522737
-22.5653 12.8055 -35.0349 0.242549 0 4.2 0.747731 -0.24938 0.615393 0.591027
-18.6684 6.15575 -34.8124 -0.0304661 -0.133817 -0.215794 -0.332938 0.313277 0.889387 0.866918
-19.4355 7.30119 -30.0311 0.348725 0 4.2 -0.359199 0.0735224 -0.930361 0.661971
-16.3107 10.552 -38.2837 0.950886 0 4.2 -0.351674 0.744347 0.567692 0.472524
-19.5267 12.1454 -38.1077 1.31295 0 -3.9 0.542435 -0.3893 0.744453 0.609326
-14.2467 12.6036 -35.4885 0.019241 0 4.5 -0.910937 0.224239 -0.346281 0.181538
-21.2283 6.00025 -34.9695 0.252115 0 1.91152 0.0404407 0.215741 0.975613 0.632511
-20.912 6.8585 -29.778 0.26004 0 4.2 -0.362589 0.0302806 -0.931457 -0.999859
-20.6198 10.5526 -37.8764 0.446202 0 0.946162 0.496153 0.0994911 0.862516 0.764407
-19.103 4.90387 -32.5671 2.10953 0 1.9 -0.495224 0.839365 -0.224097 0.219649
-16.438 14.591 -37.4395 0.196076 0 3.8 0.0704694 -0.574529 0.815445 0.241532
-24.1375 4.28775 -27.5263 2.0266 0 1.43706 -0.24647 0.286331 -0.925887 0.283673
-16.6418 10.2685 -35.5609 0.314037 0 1.9 -0.353368 0.876239 -0.327622 0.238789
-23.1075 6.08775 -27.366 0.285542 0 -3.5 -0.295774 0.234458 -0.926038 0.999872
-19.5362 10.5099 -38.2736 0.129839 -0.331645 1.8 0.263296 0.284845 0.921704 0.435248
-15.341 11.3217 -34.4668 -0.164063 0 3.89707 -0.674672 0.636751 -0.373318 0.329056
-26.3969 12.6116 -33.2721 -0.418419 0 0.327852 0.592493 0.022298 0.805267 0.430059
-15.7999 11.9555 -32.07 -0.279314 0 4.25746 -0.492647 0.783349 -0.379028 0.999858
-20.5795 12.0347 -37.1944 0.165462 0 -2.39102 0.52625 -0.49601 0.690677 0.232796
-21.3228 3.43925 -30.4673 0.524401 0 1.9 -0.68854 0.723274 0.0527944 0.99986
-22.946 3.73 -28.41 0.519357 0 1.8 -0.341989 0.67893 -0.64969 -0.157994
-20.7291 3.89775 -31.961 0.267697 -0.195013 1.9 -0.503955 0.863589 0.0156279 0.411463
-18.427 14.1595 -37.438 0.417157 0 -0.765083 0.433381 -0.509316 0.743491 0.999797
-21.9438 4.12238 -28.3626 0.43452 0 1.8 -0.306605 0.496781 -0.811912 0.999896
-15.1019 15.4548 -36.6982 -0.250028 0 2.15499 -0.275801 -0.863268 0.422733 0.99985
-18.4478 9.08825 -30.6038 0.108173 0 3.8 -0.695516 -0.315647 -0.645465 0.574871
-16.0864 12.5425 -38.7241 0.971766 0 3.87212 -0.140571 -0.227678 0.963537 0.704491
-15.1985 11.17 -38.2795 0.286158 0 4.2 -0.3233 0.379808 0.866731 0.999861
-17.2405 6.99575 -32.2726 0.342195 0 1.9 -0.985571 0.0640955 -0.156658 0.649006
-21.4701 13.5044 -35.2731 0.560918 0 -3.9 0.344379 -0.59135 0.729183 0.221262
-17.5698 7.84631 -31.032 0.299875 0 4.2 -0.910617 -0.0722242 -0.406891 0.999769
-17.9286 5.33475 -33.0562 -0.072952 -0.215158 0.32786 -0.689247 0.705267 0.165942 0.999844
-21.7178 10.1047 -36.8893 0.413768 0 4.24646 0.729796 0.289605 0.619296 0.999847
-22.1555 5.67513 -34.6102 0.205088 0 4.12836 0.409447 0.15247 0.899503 0.405891
-21.7775 15.7045 -32.8815 1.60225 0 -3.9 -0.276721 -0.759315 0.588953 -0.99991
3 139 97 107
3 139 168 97
3 107 97 87
3 107 34 139
3 168 139 34
3 113 97 168
3 87 97 171
3 87 111 107
3 34 107 6
3 34 82 168
3 97 113 171
3 157 113 168
3 32 87 171
3 87 4 111
3 107 111 6
3 117 34 6
3 82 34 117
3 82 106 168
3 171 113 157
3 157 168 30
3 114 87 32
3 32 171 63
3 39 4 87
3 6 111 13
3 46 117 6
3 168 106 98
3 147 171 157
3 90 30 168
3 157 30 15
3 87 114 39
3 63 114 32
3 171 78 63
3 13 46 6
3 95 117 46
3 106 173 98
3 168 98 118
3 78 171 147
3 147 157 153
3 90 60 30
3 118 90 168
3 60 15 30
3 157 15 143
3 17 114 63
3 63 78 73
3 88 46 13
3 95 46 88
3 173 51 98
3 19 118 98
3 78 147 153
3 143 153 157
3 53 60 90
3 118 53 90
3 60 161 15
3 15 161 143
3 17 25 114
3 85 17 63
3 78 153 73
3 63 73 85
3 155 95 88
3 51 19 98
3 74 153 143
3 161 74 143
3 102 25 17
3 25 93 114
3 102 17 85
3 86 73 153
3 73 133 85
3 95 155 24
3 155 88 40
3 153 74 35
3 74 161 91
3 102 140 25
3 93 25 145
3 102 85 108
3 133 73 86
3 153 35 86
3 133 108 85
3 155 23 24
3 128 155 40
3 74 94 35
3 91 161 149
3 94 74 91
3 102 137 140
3 145 25 140
3 93 145 172
3 137 102 108
3 133 86 151
3 35 134 86
3 108 133 36
3 23 155 121
3 128 121 155
3 128 40 27
3 94 134 35
3 161 70 149
3 91 149 12
3 165 94 91
3 140 137 170
3 104 145 140
3 172 145 33
3 172 119 93
3 169 137 108
3 151 86 100
3 151 36 133
3 142 86 134
3 36 48 108
3 130 23 121
3 121 128 14
3 134 94 142
3 149 70 163
3 79 12 149
3 91 12 165
3 94 165 166
3 170 137 131
3 138 140 170
3 104 3 145
3 140 138 104
3 145 3 33
3 125 172 33
3 172 125 119
3 119 39 93
3 167 137 169
3 48 169 108
3 86 142 100
3 100 92 151
3 36 151 103
3 48 36 38
3 23 130 66
3 14 130 121
3 166 142 94
3 64 163 70
3 79 149 163
3 26 12 79
3 12 26 165
3 166 165 81
3 137 167 131
3 131 167 170
3 148 138 170
3 3 104 138
3 33 3 112
3 33 50 125
3 96 119 125
3 96 39 119
3 167 169 10
3 48 71 169
3 92 100 142
3 49 151 92
3 151 154 103
3 38 36 103
3 38 72 48
3 142 166 92
3 163 64 28
3 115 26 79
3 81 165 26
3 170 167 10
3 138 148 160
3 10 148 170
3 3 138 112
3 89 33 112
3 2 50 33
3 9 125 50
3 99 96 125
3 10 169 101
3 71 48 72
3 169 71 164
3 45 151 49
3 154 151 45
3 156 103 154
3 103 16 38
3 72 38 16
3 29 163 28
3 81 26 115
3 126 160 148
3 112 138 160
3 148 10 101
3 33 89 2
3 65 89 112
3 47 125 9
3 61 96 99
3 47 99 125
3 101 169 141
3 72 132 71
3 164 71 132
3 164 109 169
3 144 45 49
3 154 45 144
3 103 156 16
3 154 123 156
3 16 124 72
3 83 163 29
3 115 122 81
3 158 160 126
3 101 126 148
3 112 160 65
3 120 89 65
3 55 47 9
3 99 116 61
3 116 99 47
3 169 109 141
3 52 101 141
3 124 132 72
3 164 132 135
3 109 164 135
3 49 122 144
3 144 76 154
3 124 16 156
3 154 76 123
3 163 83 68
3 83 29 42
3 144 122 115
3 158 65 160
3 101 52 126
3 120 65 158
3 47 55 43
3 116 62 61
3 47 43 116
3 141 109 54
3 141 146 52
3 124 135 132
3 109 135 11
3 76 144 80
3 42 123 76
3 83 80 68
3 42 29 0
3 76 83 42
3 144 115 44
3 158 56 120
3 67 43 55
3 116 43 67
3 54 109 136
3 141 54 146
3 69 135 124
3 11 135 77
3 109 11 136
3 144 44 80
3 80 83 76
3 80 44 68
3 158 8 56
3 7 146 54
3 69 1 135
3 75 77 135
3 11 77 136
3 8 158 127
3 56 8 129
3 7 22 146
3 135 1 75
3 5 77 75
3 5 136 77
3 8 127 129
3 75 37 5
3 5 37 136
3 159 129 127
3 21 129 159
3 159 127 162
3 21 105 129
3 150 21 159
3 162 150 159
3 84 105 21
3 129 105 20
3 84 21 150
3 162 152 150
3 59 84 150
3 31 152 162
3 150 152 18
3 57 84 59
3 59 150 110
3 18 41 150
3 58 57 59
3 41 110 150
3 59 110 58
